<!-- icon666.com - MILLIONS vector ICONS FREE --><svg enable-background="new 0 0 520 520" viewBox="0 0 520 520" xmlns="http://www.w3.org/2000/svg"><g id="_x32_89_x2C__Camping_x2C__Flashlight_x2C__Light_x2C__Torch"><g><path d="m468.589 82.93c3.9 3.9 3.9 10.24 0 14.14-1.95 1.95-4.51 2.93-7.07 2.93s-5.119-.98-7.069-2.93-2.931-4.51-2.931-7.07.98-5.12 2.931-7.07c1.95-1.95 4.51-2.93 7.069-2.93 2.56 0 5.12.98 7.07 2.93z"></path><path d="m453.379 227.84-32.17 32.17c-9.57 9.57-25.08 9.57-34.65 0l-135.06-135.05c-9.57-9.57-9.57-25.08 0-34.65l43.13-43.13c9.57-9.57 25.09-9.57 34.65 0l135.06 135.05c9.57 9.57 9.57 25.08 0 34.65z" fill="#747371"></path><path d="m441.519 340c11.04 0 20 8.95 20 20s-8.96 20-20 20c-11.05 0-20-8.95-20-20s8.95-20 20-20z" fill="#3c3b3d"></path><path d="m448.589 412.93c3.9 3.9 3.9 10.24 0 14.141-1.95 1.949-4.51 2.93-7.07 2.93s-5.119-.98-7.069-2.93-2.931-4.511-2.931-7.07.98-5.12 2.931-7.07c1.95-1.949 4.51-2.93 7.069-2.93 2.56-.001 5.12.979 7.07 2.929z"></path><path d="m389.739 263.2-15.561 15.55c-7.02 7.03-18.42 7.03-25.449 0l-8.49-8.48-98.99-99-8.49-8.48c-7.03-7.03-7.03-18.43 0-25.46l15.56-15.55 3.181 3.18z" fill="#808080"></path><path d="m358.589 332.93c3.9 3.9 3.9 10.24 0 14.141-1.95 1.949-4.51 2.93-7.07 2.93s-5.119-.98-7.069-2.93-2.931-4.511-2.931-7.07.98-5.12 2.931-7.07c1.95-1.949 4.51-2.93 7.069-2.93 2.56-.001 5.12.979 7.07 2.929z"></path><path d="m241.249 171.27-179.07 179.07c-18.26 18.26-18.26 47.87 0 66.13l32.87 32.87c18.26 18.26 47.86 18.26 66.12 0l30.58-30.58 148.49-148.49z" fill="#b3b3b3"></path><path d="m306.519 400c8.28 0 15 6.72 15 15s-6.72 15-15 15c-8.289 0-15-6.72-15-15s6.71-15 15-15z" fill="#3c3b3d"></path><path d="m248.318 263.2c3.9 3.899 5.86 9.02 5.86 14.14s-1.96 10.24-5.86 14.141l-42.43 42.43c-7.81 7.81-20.47 7.81-28.28 0-7.81-7.811-7.81-20.48 0-28.29l42.431-42.42c7.81-7.811 20.47-7.811 28.279-.001z" fill="#f14742"></path><path d="m248.589 462.93c3.9 3.9 3.9 10.24 0 14.141-1.95 1.949-4.51 2.93-7.07 2.93s-5.12-.98-7.08-2.93c-1.949-1.95-2.92-4.511-2.92-7.07s.971-5.12 2.92-7.07c1.96-1.949 4.521-2.93 7.08-2.93 2.56-.001 5.12.979 7.07 2.929z"></path><path d="m208.589 72.93c3.9 3.9 3.9 10.24 0 14.14-1.95 1.95-4.51 2.93-7.07 2.93s-5.12-.98-7.08-2.93c-1.949-1.95-2.92-4.51-2.92-7.07s.971-5.12 2.92-7.07c1.96-1.95 4.521-2.93 7.08-2.93 2.56 0 5.12.98 7.07 2.93z"></path><path d="m106.519 90c13.8 0 25 11.19 25 25s-11.2 25-25 25c-13.81 0-25-11.19-25-25s11.19-25 25-25z" fill="#3c3b3d"></path><path d="m98.589 202.93c3.9 3.9 3.9 10.24 0 14.14-1.95 1.95-4.51 2.93-7.07 2.93s-5.12-.98-7.08-2.93c-1.949-1.95-2.92-4.51-2.92-7.07s.971-5.12 2.92-7.07c1.96-1.95 4.521-2.93 7.08-2.93 2.56 0 5.12.98 7.07 2.93z"></path><path d="m128.108 473.007c-14.533 0-29.066-5.532-40.131-16.596l-32.87-32.87c-10.72-10.72-16.624-24.974-16.624-40.137 0-15.162 5.904-29.416 16.625-40.136l179.069-179.07c3.905-3.905 10.237-3.905 14.143 0s3.905 10.237 0 14.143l-179.07 179.07c-6.942 6.942-10.767 16.174-10.767 25.993 0 9.82 3.824 19.052 10.767 25.994l32.87 32.87c14.33 14.33 37.647 14.33 51.978 0l179.07-179.07c3.906-3.904 10.236-3.904 14.143 0 3.905 3.905 3.905 10.237 0 14.143l-179.07 179.07c-11.065 11.064-25.598 16.596-40.133 16.596z"></path><path d="m403.884 277.188c-9.215 0-17.879-3.589-24.396-10.106l-135.06-135.05c-13.452-13.452-13.452-35.34 0-48.792l43.13-43.129c6.518-6.518 15.183-10.107 24.4-10.107 9.219 0 17.883 3.591 24.396 10.11l135.056 135.045c6.518 6.517 10.106 15.181 10.106 24.396s-3.589 17.879-10.106 24.396l-43.13 43.13c-6.517 6.518-15.181 10.107-24.396 10.107zm-91.926-227.186c-3.875 0-7.519 1.509-10.258 4.249l-43.13 43.129c-5.654 5.654-5.654 14.854 0 20.508l135.059 135.05c2.74 2.74 6.382 4.249 10.255 4.249s7.515-1.509 10.254-4.249l43.13-43.13c2.74-2.74 4.249-6.381 4.249-10.253 0-3.873-1.509-7.514-4.249-10.254l-135.059-135.05c-2.739-2.741-6.378-4.249-10.251-4.249z"></path><path d="m191.749 349.768c-8.013 0-15.545-3.12-21.211-8.786-5.667-5.667-8.787-13.201-8.787-21.217s3.121-15.55 8.787-21.216l42.431-42.42c5.665-5.666 13.198-8.786 21.21-8.786s15.545 3.12 21.211 8.786c5.668 5.666 8.789 13.199 8.789 21.211 0 8.011-3.121 15.544-8.789 21.212l-42.43 42.43c-5.666 5.665-13.199 8.786-21.211 8.786zm42.43-82.425c-2.67 0-5.181 1.04-7.068 2.929l-42.432 42.421c-1.888 1.888-2.928 4.399-2.928 7.072 0 2.674 1.04 5.186 2.929 7.074s4.399 2.929 7.069 2.929 5.181-1.04 7.069-2.929l42.429-42.43c1.891-1.89 2.932-4.4 2.932-7.069 0-2.668-1.04-5.179-2.931-7.067-1.889-1.89-4.399-2.93-7.069-2.93z"></path><path d="m191.749 428.76c-2.56 0-5.119-.977-7.071-2.929l-70.71-70.71c-3.905-3.905-3.905-10.237 0-14.143 3.905-3.904 10.237-3.904 14.143 0l70.71 70.71c3.905 3.905 3.905 10.237 0 14.143-1.954 1.952-4.513 2.929-7.072 2.929z"></path><path d="m453.379 237.84c-2.56 0-5.118-.976-7.071-2.929l-141.42-141.42c-3.905-3.905-3.905-10.237 0-14.143 3.906-3.905 10.236-3.905 14.143 0l141.42 141.42c3.905 3.905 3.905 10.237 0 14.143-1.954 1.953-4.513 2.929-7.072 2.929z"></path><path d="m306.519 440c-13.785 0-25-11.215-25-25s11.215-25 25-25 25 11.215 25 25-11.215 25-25 25zm0-30c-2.757 0-5 2.243-5 5s2.243 5 5 5 5-2.243 5-5-2.244-5-5-5z"></path><path d="m441.519 390c-16.542 0-30-13.458-30-30s13.458-30 30-30 30 13.458 30 30-13.458 30-30 30zm0-40c-5.514 0-10 4.486-10 10s4.486 10 10 10 10-4.486 10-10-4.487-10-10-10z"></path><path d="m106.519 150c-19.299 0-35-15.701-35-35s15.701-35 35-35 35 15.701 35 35-15.702 35-35 35zm0-50c-8.271 0-15 6.729-15 15s6.729 15 15 15 15-6.729 15-15-6.729-15-15-15z"></path><path d="m361.458 294.022c-7.479 0-14.512-2.913-19.8-8.202l-8.486-8.476-98.994-99.004-8.486-8.476c-10.922-10.923-10.922-28.688-.004-39.606l15.563-15.553c3.904-3.903 10.234-3.903 14.14.002l141.421 141.42c1.876 1.876 2.929 4.42 2.929 7.073 0 2.652-1.055 5.196-2.932 7.071l-15.561 15.55c-5.277 5.287-12.308 8.201-19.79 8.201zm-113.142-158.103-8.489 8.484c-3.118 3.118-3.117 8.195.003 11.316l8.485 8.476 98.995 99.004 8.486 8.476c1.515 1.516 3.524 2.348 5.661 2.348 2.134 0 4.139-.83 5.645-2.338l8.492-8.487z"></path></g></g></svg>